<svg version="1.1" viewBox="0.0 0.0 350.0 200.0" fill="none" stroke="none" stroke-linecap="square" stroke-miterlimit="10" xmlns:xlink="http://www.w3.org/1999/xlink" xmlns="http://www.w3.org/2000/svg"><clipPath id="p.0"><path d="m0 0l350.0 0l0 200.0l-350.0 0l0 -200.0z" clip-rule="nonzero"/></clipPath><g clip-path="url(#p.0)"><path fill="#000000" fill-opacity="0.0" d="m0 0l350.0 0l0 200.0l-350.0 0z" fill-rule="evenodd"/><path fill="#cfe2f3" d="m88.71965 7.88473l34.362206 0l0 41.480312l-34.362206 0z" fill-rule="evenodd"/><path stroke="#000000" stroke-width="1.0" stroke-linejoin="round" stroke-linecap="butt" d="m88.71965 7.88473l34.362206 0l0 41.480312l-34.362206 0z" fill-rule="evenodd"/><path fill="#000000" d="m97.774895 31.677385q-0.53125 0.4531269 -1.015625 0.6406269q-0.46875 0.171875 -1.015625 0.171875q-0.921875 0 -1.40625 -0.4375q-0.484375 -0.4531269 -0.484375 -1.1406269q0 -0.40625 0.171875 -0.734375q0.1875 -0.34375 0.484375 -0.546875q0.3125 -0.203125 0.6875 -0.3125q0.265625 -0.0625 0.828125 -0.140625q1.125 -0.125 1.671875 -0.3125q0 -0.203125 0 -0.25q0 -0.578125 -0.265625 -0.8125q-0.359375 -0.3125 -1.0625 -0.3125q-0.65625 0 -0.984375 0.234375q-0.3125 0.234375 -0.453125 0.8125l-0.921875 -0.125q0.125 -0.578125 0.40625 -0.9375q0.296875 -0.375 0.828125 -0.5625q0.546875 -0.203125 1.25 -0.203125q0.71875 0 1.15625 0.171875q0.4375 0.171875 0.640625 0.421875q0.21875 0.25 0.296875 0.640625q0.046875 0.234375 0.046875 0.859375l0 1.25q0 1.296875 0.0625 1.65625q0.0625 0.3437519 0.234375 0.6562519l-0.96875 0q-0.15625 -0.296875 -0.1875 -0.6875019zm-0.078125 -2.078125q-0.515625 0.203125 -1.53125 0.34375q-0.578125 0.078125 -0.828125 0.1875q-0.234375 0.109375 -0.359375 0.3125q-0.125 0.1875 -0.125 0.4375q0 0.375 0.28125 0.625q0.28125 0.25 0.828125 0.25q0.53125 0 0.953125 -0.234375q0.421875 -0.234375 0.625 -0.65625q0.15625 -0.3125 0.15625 -0.9375l0 -0.328125zm5.9733734 2.765627l0 -0.7031269q-0.515625 0.8281269 -1.546875 0.8281269q-0.65625 0 -1.21875 -0.359375q-0.546875 -0.3750019 -0.859375 -1.0156269q-0.296875 -0.65625 -0.296875 -1.5q0 -0.828125 0.28125 -1.5q0.28125 -0.6875 0.828125 -1.046875q0.546875 -0.359375 1.234375 -0.359375q0.5 0 0.890625 0.21875q0.390625 0.203125 0.625 0.546875l0 -2.734375l0.9375 0l0 7.625002l-0.875 0zm-2.953125 -2.750002q0 1.046875 0.4375 1.578125q0.453125 0.53125 1.0625 0.53125q0.609375 0 1.03125 -0.5q0.4375 -0.515625 0.4375 -1.53125q0 -1.140625 -0.4375 -1.671875q-0.4375 -0.53125 -1.078125 -0.53125q-0.609375 0 -1.03125 0.515625q-0.421875 0.5 -0.421875 1.609375zm8.879623 2.750002l0 -0.7031269q-0.515625 0.8281269 -1.546875 0.8281269q-0.65625 0 -1.21875 -0.359375q-0.546875 -0.3750019 -0.859375 -1.0156269q-0.296875 -0.65625 -0.296875 -1.5q0 -0.828125 0.28125 -1.5q0.28125 -0.6875 0.828125 -1.046875q0.546875 -0.359375 1.234375 -0.359375q0.5 0 0.890625 0.21875q0.390625 0.203125 0.625 0.546875l0 -2.734375l0.9375 0l0 7.625002l-0.875 0zm-2.953125 -2.750002q0 1.046875 0.4375 1.578125q0.453125 0.53125 1.0625 0.53125q0.609375 0 1.03125 -0.5q0.4375 -0.515625 0.4375 -1.53125q0 -1.140625 -0.4375 -1.671875q-0.4375 -0.53125 -1.078125 -0.53125q-0.609375 0 -1.03125 0.515625q-0.421875 0.5 -0.421875 1.609375zm7.0983734 5.000002q-0.78125 -0.984375 -1.328125 -2.296875q-0.53125 -1.3125019 -0.53125 -2.718752q0 -1.234375 0.40625 -2.375q0.46875 -1.3125 1.453125 -2.625l0.65625 0q-0.625 1.09375 -0.828125 1.546875q-0.3125 0.71875 -0.5 1.5q-0.21875 0.984375 -0.21875 1.96875q0 2.500002 1.546875 5.000002l-0.65625 0zm2.3611145 0l-0.671875 0q1.5625 -2.5 1.5625 -5.000002q0 -0.984375 -0.21875 -1.953125q-0.1875 -0.78125 -0.5 -1.5q-0.203125 -0.46875 -0.84375 -1.5625l0.671875 0q0.984375 1.3125 1.453125 2.625q0.390625 1.140625 0.390625 2.375q0 1.40625 -0.53125 2.718752q-0.53125 1.3125 -1.3125 2.296875z" fill-rule="nonzero"/><path fill="#cfe2f3" d="m6.776884 146.44598l73.03937 0l0 45.66928l-73.03937 0z" fill-rule="evenodd"/><path stroke="#000000" stroke-width="1.0" stroke-linejoin="round" stroke-linecap="butt" d="m6.776884 146.44598l73.03937 0l0 45.66928l-73.03937 0z" fill-rule="evenodd"/><path fill="#000000" d="m11.411741 173.02063l0 -5.53125l0.84375 0l0 0.84375q0.328125 -0.59375 0.59375 -0.78125q0.28125 -0.1875 0.609375 -0.1875q0.46875 0 0.953125 0.3125l-0.3125 0.859375q-0.34375 -0.203125 -0.6875 -0.203125q-0.3125 0 -0.5625 0.1875q-0.234375 0.1875 -0.34375 0.515625q-0.15625 0.5 -0.15625 1.09375l0 2.890625l-0.9375 0zm7.3454895 -1.78125l0.96875 0.125q-0.234375 0.84375 -0.859375 1.3125q-0.609375 0.46875 -1.578125 0.46875q-1.203125 0 -1.921875 -0.75q-0.703125 -0.75 -0.703125 -2.09375q0 -1.390625 0.71875 -2.15625q0.71875 -0.78125 1.859375 -0.78125q1.109375 0 1.8125 0.765625q0.703125 0.75 0.703125 2.125q0 0.078125 0 0.234375l-4.125 0q0.046875 0.921875 0.515625 1.40625q0.46875 0.484375 1.15625 0.484375q0.515625 0 0.875 -0.265625q0.359375 -0.28125 0.578125 -0.875zm-3.078125 -1.515625l3.09375 0q-0.0625 -0.6875 -0.359375 -1.046875q-0.453125 -0.53125 -1.15625 -0.53125q-0.640625 0 -1.09375 0.4375q-0.4375 0.421875 -0.484375 1.140625zm4.8483734 1.640625l0.921875 -0.140625q0.078125 0.5625 0.4375 0.859375q0.359375 0.296875 1.0 0.296875q0.640625 0 0.953125 -0.265625q0.3125 -0.265625 0.3125 -0.625q0 -0.3125 -0.28125 -0.5q-0.1875 -0.125 -0.953125 -0.3125q-1.03125 -0.265625 -1.4375 -0.453125q-0.390625 -0.1875 -0.59375 -0.515625q-0.203125 -0.34375 -0.203125 -0.75q0 -0.359375 0.171875 -0.671875q0.171875 -0.328125 0.453125 -0.53125q0.21875 -0.15625 0.59375 -0.265625q0.390625 -0.125 0.8125 -0.125q0.65625 0 1.140625 0.1875q0.5 0.1875 0.734375 0.515625q0.234375 0.3125 0.3125 0.859375l-0.90625 0.125q-0.0625 -0.4375 -0.375 -0.671875q-0.296875 -0.234375 -0.828125 -0.234375q-0.65625 0 -0.9375 0.21875q-0.265625 0.203125 -0.265625 0.484375q0 0.1875 0.109375 0.328125q0.125 0.15625 0.359375 0.25q0.140625 0.0625 0.828125 0.25q1.0 0.265625 1.390625 0.4375q0.390625 0.15625 0.609375 0.484375q0.234375 0.3125 0.234375 0.796875q0 0.46875 -0.28125 0.890625q-0.265625 0.40625 -0.78125 0.640625q-0.515625 0.21875 -1.171875 0.21875q-1.078125 0 -1.640625 -0.4375q-0.5625 -0.453125 -0.71875 -1.34375zm7.75 0.8125l0.125 0.828125q-0.390625 0.09375 -0.703125 0.09375q-0.5 0 -0.78125 -0.15625q-0.28125 -0.171875 -0.40625 -0.4375q-0.109375 -0.265625 -0.109375 -1.109375l0 -3.171875l-0.6875 0l0 -0.734375l0.6875 0l0 -1.359375l0.9375 -0.5625l0 1.921875l0.9375 0l0 0.734375l-0.9375 0l0 3.234375q0 0.390625 0.046875 0.515625q0.046875 0.109375 0.15625 0.1875q0.109375 0.0625 0.328125 0.0625q0.15625 0 0.40625 -0.046875zm0.5700226 -1.921875q0 -1.53125 0.84375 -2.265625q0.71875 -0.625 1.734375 -0.625q1.1406269 0 1.8593769 0.75q0.734375 0.75 0.734375 2.0625q0 1.0625 -0.328125 1.6875q-0.3125 0.609375 -0.921875 0.953125q-0.609375 0.328125 -1.3437519 0.328125q-1.15625 0 -1.875 -0.734375q-0.703125 -0.75 -0.703125 -2.15625zm0.953125 0q0 1.0625 0.46875 1.59375q0.46875 0.53125 1.15625 0.53125q0.7031269 0 1.1562519 -0.53125q0.46875 -0.53125 0.46875 -1.625q0 -1.015625 -0.46875 -1.546875q-0.453125 -0.53125 -1.1562519 -0.53125q-0.6875 0 -1.15625 0.53125q-0.46875 0.515625 -0.46875 1.578125zm5.3015003 2.765625l0 -5.53125l0.84375 0l0 0.84375q0.328125 -0.59375 0.59375 -0.78125q0.28125 -0.1875 0.609375 -0.1875q0.46875 0 0.953125 0.3125l-0.3125 0.859375q-0.34375 -0.203125 -0.6875 -0.203125q-0.3125 0 -0.5625 0.1875q-0.234375 0.1875 -0.34375 0.515625q-0.15625 0.5 -0.15625 1.09375l0 2.890625l-0.9375 0zm7.3454895 -1.78125l0.96875 0.125q-0.234375 0.84375 -0.859375 1.3125q-0.609375 0.46875 -1.578125 0.46875q-1.203125 0 -1.921875 -0.75q-0.703125 -0.75 -0.703125 -2.09375q0 -1.390625 0.71875 -2.15625q0.71875 -0.78125 1.859375 -0.78125q1.109375 0 1.8125 0.765625q0.703125 0.75 0.703125 2.125q0 0.078125 0 0.234375l-4.125 0q0.046875 0.921875 0.515625 1.40625q0.46875 0.484375 1.15625 0.484375q0.515625 0 0.875 -0.265625q0.359375 -0.28125 0.578125 -0.875zm-3.078125 -1.515625l3.09375 0q-0.0625 -0.6875 -0.359375 -1.046875q-0.453125 -0.53125 -1.15625 -0.53125q-0.640625 0 -1.09375 0.4375q-0.4375 0.421875 -0.484375 1.140625zm5.0046234 0.84375l0.953125 -0.078125q0.0625 0.5625 0.3125 0.9375q0.25 0.359375 0.765625 0.59375q0.515625 0.21875 1.171875 0.21875q0.578125 0 1.015625 -0.171875q0.4375 -0.171875 0.65625 -0.46875q0.21875 -0.296875 0.21875 -0.65625q0 -0.359375 -0.21875 -0.625q-0.203125 -0.265625 -0.671875 -0.4375q-0.3125 -0.125 -1.359375 -0.375q-1.046875 -0.25 -1.46875 -0.484375q-0.546875 -0.28125 -0.828125 -0.703125q-0.265625 -0.421875 -0.265625 -0.953125q0 -0.578125 0.328125 -1.078125q0.328125 -0.5 0.953125 -0.765625q0.640625 -0.265625 1.40625 -0.265625q0.84375 0 1.484375 0.28125q0.65625 0.265625 1.0 0.796875q0.359375 0.53125 0.390625 1.203125l-0.96875 0.078125q-0.078125 -0.71875 -0.53125 -1.09375q-0.453125 -0.375 -1.328125 -0.375q-0.921875 0 -1.34375 0.34375q-0.40625 0.328125 -0.40625 0.8125q0 0.40625 0.296875 0.671875q0.28125 0.265625 1.515625 0.546875q1.234375 0.28125 1.6875 0.484375q0.671875 0.3125 0.984375 0.78125q0.3125 0.46875 0.3125 1.078125q0 0.609375 -0.34375 1.15625q-0.34375 0.53125 -1.0 0.828125q-0.65625 0.296875 -1.46875 0.296875q-1.046875 0 -1.75 -0.296875q-0.6875 -0.296875 -1.09375 -0.90625q-0.390625 -0.609375 -0.40625 -1.375zm9.3732605 1.609375l0.125 0.828125q-0.390625 0.09375 -0.703125 0.09375q-0.5 0 -0.78125 -0.15625q-0.28125 -0.171875 -0.40625 -0.4375q-0.109375 -0.265625 -0.109375 -1.109375l0 -3.171875l-0.6875 0l0 -0.734375l0.6875 0l0 -1.359375l0.9375 -0.5625l0 1.921875l0.9375 0l0 0.734375l-0.9375 0l0 3.234375q0 0.390625 0.046875 0.515625q0.046875 0.109375 0.15625 0.1875q0.109375 0.0625 0.328125 0.0625q0.15625 0 0.40625 -0.046875zm4.5231476 0.15625q-0.53125 0.453125 -1.015625 0.640625q-0.46875 0.171875 -1.015625 0.171875q-0.921875 0 -1.40625 -0.4375q-0.484375 -0.453125 -0.484375 -1.140625q0 -0.40625 0.171875 -0.734375q0.1875 -0.34375 0.484375 -0.546875q0.3125 -0.203125 0.6875 -0.3125q0.265625 -0.0625 0.828125 -0.140625q1.125 -0.125 1.671875 -0.3125q0 -0.203125 0 -0.25q0 -0.578125 -0.265625 -0.8125q-0.359375 -0.3125 -1.0625 -0.3125q-0.65625 0 -0.984375 0.234375q-0.3125 0.234375 -0.453125 0.8125l-0.921875 -0.125q0.125 -0.578125 0.40625 -0.9375q0.296875 -0.375 0.828125 -0.5625q0.546875 -0.203125 1.25 -0.203125q0.71875 0 1.15625 0.171875q0.4375 0.171875 0.640625 0.421875q0.21875 0.25 0.296875 0.640625q0.046875 0.234375 0.046875 0.859375l0 1.25q0 1.296875 0.0625 1.65625q0.0625 0.34375 0.234375 0.65625l-0.96875 0q-0.15625 -0.296875 -0.1875 -0.6875zm-0.078125 -2.078125q-0.515625 0.203125 -1.53125 0.34375q-0.578125 0.078125 -0.828125 0.1875q-0.234375 0.109375 -0.359375 0.3125q-0.125 0.1875 -0.125 0.4375q0 0.375 0.28125 0.625q0.28125 0.25 0.828125 0.25q0.53125 0 0.953125 -0.234375q0.421875 -0.234375 0.625 -0.65625q0.15625 -0.3125 0.15625 -0.9375l0 -0.328125zm4.4421234 1.921875l0.125 0.828125q-0.390625 0.09375 -0.703125 0.09375q-0.5 0 -0.78125 -0.15625q-0.28125 -0.171875 -0.40625 -0.4375q-0.109375 -0.265625 -0.109375 -1.109375l0 -3.171875l-0.6875 0l0 -0.734375l0.6875 0l0 -1.359375l0.9375 -0.5625l0 1.921875l0.9375 0l0 0.734375l-0.9375 0l0 3.234375q0 0.390625 0.046875 0.515625q0.046875 0.109375 0.15625 0.1875q0.109375 0.0625 0.328125 0.0625q0.15625 0 0.40625 -0.046875zm4.6950226 -0.9375l0.96875 0.125q-0.234375 0.84375 -0.859375 1.3125q-0.609375 0.46875 -1.578125 0.46875q-1.203125 0 -1.921875 -0.75q-0.703125 -0.75 -0.703125 -2.09375q0 -1.390625 0.71875 -2.15625q0.71875 -0.78125 1.859375 -0.78125q1.109375 0 1.8125 0.765625q0.703125 0.75 0.703125 2.125q0 0.078125 0 0.234375l-4.125 0q0.046875 0.921875 0.515625 1.40625q0.46875 0.484375 1.15625 0.484375q0.515625 0 0.875 -0.265625q0.359375 -0.28125 0.578125 -0.875zm-3.078125 -1.515625l3.09375 0q-0.0625 -0.6875 -0.359375 -1.046875q-0.453125 -0.53125 -1.15625 -0.53125q-0.640625 0 -1.09375 0.4375q-0.4375 0.421875 -0.484375 1.140625zm7.0202484 5.546875q-0.78125 -0.984375 -1.328125 -2.296875q-0.53125 -1.3125 -0.53125 -2.71875q0 -1.234375 0.40625 -2.375q0.46875 -1.3125 1.453125 -2.625l0.65625 0q-0.625 1.09375 -0.828125 1.546875q-0.3125 0.71875 -0.5 1.5q-0.21875 0.984375 -0.21875 1.96875q0 2.5 1.546875 5.0l-0.65625 0zm2.3611145 0l-0.671875 0q1.5625 -2.5 1.5625 -5.0q0 -0.984375 -0.21875 -1.953125q-0.1875 -0.78125 -0.5 -1.5q-0.203125 -0.46875 -0.84375 -1.5625l0.671875 0q0.984375 1.3125 1.453125 2.625q0.390625 1.140625 0.390625 2.375q0 1.40625 -0.53125 2.71875q-0.53125 1.3125 -1.3125 2.296875z" fill-rule="nonzero"/><path fill="#cfe2f3" d="m135.12636 76.158516l61.385834 0l0 45.669296l-61.385834 0z" fill-rule="evenodd"/><path stroke="#000000" stroke-width="1.0" stroke-linejoin="round" stroke-linecap="butt" d="m135.12636 76.158516l61.385834 0l0 45.669296l-61.385834 0z" fill-rule="evenodd"/><path fill="#000000" d="m138.9032 101.07691l0.921875 -0.140625q0.078125 0.5625 0.4375 0.859375q0.359375 0.296875 1.0 0.296875q0.640625 0 0.953125 -0.265625q0.3125 -0.265625 0.3125 -0.625q0 -0.3125 -0.28125 -0.5q-0.1875 -0.125 -0.953125 -0.3125q-1.03125 -0.265625 -1.4375 -0.453125q-0.390625 -0.1875 -0.59375 -0.515625q-0.203125 -0.34375 -0.203125 -0.75q0 -0.359375 0.171875 -0.671875q0.171875 -0.328125 0.453125 -0.53125q0.21875 -0.15625 0.59375 -0.265625q0.390625 -0.125 0.8125 -0.125q0.65625 0 1.140625 0.1875q0.5 0.1875 0.734375 0.515625q0.234375 0.3125 0.3125 0.859375l-0.90625 0.125q-0.0625 -0.4375 -0.375 -0.671875q-0.296875 -0.234375 -0.828125 -0.234375q-0.65625 0 -0.9375 0.21875q-0.265625 0.203125 -0.265625 0.484375q0 0.1875 0.109375 0.328125q0.125 0.15625 0.359375 0.25q0.140625 0.0625 0.828125 0.25q1.0 0.265625 1.390625 0.4375q0.390625 0.15625 0.609375 0.484375q0.234375 0.3125 0.234375 0.796875q0 0.46875 -0.28125 0.890625q-0.265625 0.40625 -0.78125 0.640625q-0.515625 0.21875 -1.171875 0.21875q-1.078125 0 -1.640625 -0.4375q-0.5625 -0.453125 -0.71875 -1.34375zm9.3125 0.96875q-0.53125 0.453125 -1.015625 0.640625q-0.46875 0.171875 -1.015625 0.171875q-0.921875 0 -1.40625 -0.4375q-0.484375 -0.453125 -0.484375 -1.140625q0 -0.40625 0.171875 -0.734375q0.1875 -0.34375 0.484375 -0.546875q0.3125 -0.203125 0.6875 -0.3125q0.265625 -0.0625 0.828125 -0.140625q1.125 -0.125 1.671875 -0.3125q0 -0.203125 0 -0.25q0 -0.578125 -0.265625 -0.8125q-0.359375 -0.3125 -1.0625 -0.3125q-0.65625 0 -0.984375 0.234375q-0.3125 0.234375 -0.453125 0.8125l-0.921875 -0.125q0.125 -0.578125 0.40625 -0.9375q0.296875 -0.375 0.828125 -0.5625q0.546875 -0.203125 1.25 -0.203125q0.71875 0 1.15625 0.171875q0.4375 0.171875 0.640625 0.421875q0.21875 0.25 0.296875 0.640625q0.046875 0.234375 0.046875 0.859375l0 1.25q0 1.296875 0.0625 1.65625q0.0625 0.34375 0.234375 0.65625l-0.96875 0q-0.15625 -0.296875 -0.1875 -0.6875zm-0.078125 -2.078125q-0.515625 0.203125 -1.53125 0.34375q-0.578125 0.078125 -0.828125 0.1875q-0.234375 0.109375 -0.359375 0.3125q-0.125 0.1875 -0.125 0.4375q0 0.375 0.28125 0.625q0.28125 0.25 0.828125 0.25q0.53125 0 0.953125 -0.234375q0.421875 -0.234375 0.625 -0.65625q0.15625 -0.3125 0.15625 -0.9375l0 -0.328125zm3.9264984 2.765625l-2.09375 -5.53125l0.984375 0l1.1875 3.3125q0.1875 0.53125 0.359375 1.109375q0.109375 -0.4375 0.34375 -1.046875l1.21875 -3.375l0.96875 0l-2.09375 5.53125l-0.875 0zm7.578125 -1.78125l0.96875 0.125q-0.234375 0.84375 -0.859375 1.3125q-0.609375 0.46875 -1.578125 0.46875q-1.203125 0 -1.921875 -0.75q-0.703125 -0.75 -0.703125 -2.09375q0 -1.390625 0.71875 -2.15625q0.71875 -0.78125 1.859375 -0.78125q1.109375 0 1.8125 0.765625q0.703125 0.75 0.703125 2.125q0 0.078125 0 0.234375l-4.125 0q0.046875 0.921875 0.515625 1.40625q0.46875 0.484375 1.15625 0.484375q0.515625 0 0.875 -0.265625q0.359375 -0.28125 0.578125 -0.875zm-3.078125 -1.515625l3.09375 0q-0.0625 -0.6875 -0.359375 -1.046875q-0.453125 -0.53125 -1.15625 -0.53125q-0.640625 0 -1.09375 0.4375q-0.4375 0.421875 -0.484375 1.140625zm5.0046234 0.84375l0.953125 -0.078125q0.0625 0.5625 0.3125 0.9375q0.25 0.359375 0.765625 0.59375q0.515625 0.21875 1.171875 0.21875q0.578125 0 1.015625 -0.171875q0.4375 -0.171875 0.65625 -0.46875q0.21875 -0.296875 0.21875 -0.65625q0 -0.359375 -0.21875 -0.625q-0.203125 -0.265625 -0.671875 -0.4375q-0.3125 -0.125 -1.359375 -0.375q-1.046875 -0.25 -1.46875 -0.484375q-0.546875 -0.28125 -0.828125 -0.703125q-0.265625 -0.421875 -0.265625 -0.953125q0 -0.578125 0.328125 -1.078125q0.328125 -0.5 0.953125 -0.765625q0.640625 -0.265625 1.40625 -0.265625q0.84375 0 1.484375 0.28125q0.65625 0.265625 1.0 0.796875q0.359375 0.53125 0.390625 1.203125l-0.96875 0.078125q-0.078125 -0.71875 -0.53125 -1.09375q-0.453125 -0.375 -1.328125 -0.375q-0.921875 0 -1.34375 0.34375q-0.40625 0.328125 -0.40625 0.8125q0 0.40625 0.296875 0.671875q0.28125 0.265625 1.515625 0.546875q1.234375 0.28125 1.6875 0.484375q0.671875 0.3125 0.984375 0.78125q0.3125 0.46875 0.3125 1.078125q0 0.609375 -0.34375 1.15625q-0.34375 0.53125 -1.0 0.828125q-0.65625 0.296875 -1.46875 0.296875q-1.046875 0 -1.75 -0.296875q-0.6875 -0.296875 -1.09375 -0.90625q-0.390625 -0.609375 -0.40625 -1.375zm9.3732605 1.609375l0.125 0.828125q-0.390625 0.09375 -0.703125 0.09375q-0.5 0 -0.78125 -0.15625q-0.28125 -0.171875 -0.40625 -0.4375q-0.109375 -0.265625 -0.109375 -1.109375l0 -3.171875l-0.6875 0l0 -0.734375l0.6875 0l0 -1.359375l0.9375 -0.5625l0 1.921875l0.9375 0l0 0.734375l-0.9375 0l0 3.234375q0 0.390625 0.046875 0.515625q0.046875 0.109375 0.15625 0.1875q0.109375 0.0625 0.328125 0.0625q0.15625 0 0.40625 -0.046875zm4.5231476 0.15625q-0.53125 0.453125 -1.015625 0.640625q-0.46875 0.171875 -1.015625 0.171875q-0.921875 0 -1.40625 -0.4375q-0.484375 -0.453125 -0.484375 -1.140625q0 -0.40625 0.171875 -0.734375q0.1875 -0.34375 0.484375 -0.546875q0.3125 -0.203125 0.6875 -0.3125q0.265625 -0.0625 0.828125 -0.140625q1.125 -0.125 1.671875 -0.3125q0 -0.203125 0 -0.25q0 -0.578125 -0.265625 -0.8125q-0.359375 -0.3125 -1.0625 -0.3125q-0.65625 0 -0.984375 0.234375q-0.3125 0.234375 -0.453125 0.8125l-0.921875 -0.125q0.125 -0.578125 0.40625 -0.9375q0.296875 -0.375 0.828125 -0.5625q0.546875 -0.203125 1.25 -0.203125q0.71875 0 1.15625 0.171875q0.4375 0.171875 0.640625 0.421875q0.21875 0.25 0.296875 0.640625q0.046875 0.234375 0.046875 0.859375l0 1.25q0 1.296875 0.0625 1.65625q0.0625 0.34375 0.234375 0.65625l-0.96875 0q-0.15625 -0.296875 -0.1875 -0.6875zm-0.078125 -2.078125q-0.515625 0.203125 -1.53125 0.34375q-0.578125 0.078125 -0.828125 0.1875q-0.234375 0.109375 -0.359375 0.3125q-0.125 0.1875 -0.125 0.4375q0 0.375 0.28125 0.625q0.28125 0.25 0.828125 0.25q0.53125 0 0.953125 -0.234375q0.421875 -0.234375 0.625 -0.65625q0.15625 -0.3125 0.15625 -0.9375l0 -0.328125zm4.4421234 1.921875l0.125 0.828125q-0.390625 0.09375 -0.703125 0.09375q-0.5 0 -0.78125 -0.15625q-0.28125 -0.171875 -0.40625 -0.4375q-0.109375 -0.265625 -0.109375 -1.109375l0 -3.171875l-0.6875 0l0 -0.734375l0.6875 0l0 -1.359375l0.9375 -0.5625l0 1.921875l0.9375 0l0 0.734375l-0.9375 0l0 3.234375q0 0.390625 0.046875 0.515625q0.046875 0.109375 0.15625 0.1875q0.109375 0.0625 0.328125 0.0625q0.15625 0 0.40625 -0.046875zm4.6950226 -0.9375l0.96875 0.125q-0.234375 0.84375 -0.859375 1.3125q-0.609375 0.46875 -1.578125 0.46875q-1.203125 0 -1.921875 -0.75q-0.703125 -0.75 -0.703125 -2.09375q0 -1.390625 0.71875 -2.15625q0.71875 -0.78125 1.859375 -0.78125q1.109375 0 1.8125 0.765625q0.703125 0.75 0.703125 2.125q0 0.078125 0 0.234375l-4.125 0q0.046875 0.921875 0.515625 1.40625q0.46875 0.484375 1.15625 0.484375q0.515625 0 0.875 -0.265625q0.359375 -0.28125 0.578125 -0.875zm-3.078125 -1.515625l3.09375 0q-0.0625 -0.6875 -0.359375 -1.046875q-0.453125 -0.53125 -1.15625 -0.53125q-0.640625 0 -1.09375 0.4375q-0.4375 0.421875 -0.484375 1.140625zm7.0202484 5.546875q-0.78125 -0.984375 -1.328125 -2.296875q-0.53125 -1.3125 -0.53125 -2.71875q0 -1.234375 0.40625 -2.375q0.46875 -1.3125 1.453125 -2.625l0.65625 0q-0.625 1.09375 -0.828125 1.546875q-0.3125 0.71875 -0.5 1.5q-0.21875 0.984375 -0.21875 1.96875q0 2.5 1.546875 5.0l-0.65625 0zm2.3611145 0l-0.671875 0q1.5625 -2.5 1.5625 -5.0q0 -0.984375 -0.21875 -1.953125q-0.1875 -0.78125 -0.5 -1.5q-0.203125 -0.46875 -0.84375 -1.5625l0.671875 0q0.984375 1.3125 1.453125 2.625q0.390625 1.140625 0.390625 2.375q0 1.40625 -0.53125 2.71875q-0.53125 1.3125 -1.3125 2.296875z" fill-rule="nonzero"/><path fill="#cfe2f3" d="m210.70483 7.88473l51.24408 0l0 41.480312l-51.24408 0z" fill-rule="evenodd"/><path stroke="#000000" stroke-width="1.0" stroke-linejoin="round" stroke-linecap="butt" d="m210.70483 7.88473l51.24408 0l0 41.480312l-51.24408 0z" fill-rule="evenodd"/><path fill="#000000" d="m215.69928 32.364887l0 -5.531252l0.84375 0l0 0.84375q0.328125 -0.59375 0.59375 -0.78125q0.28125 -0.1875 0.609375 -0.1875q0.46875 0 0.953125 0.3125l-0.3125 0.859375q-0.34375 -0.203125 -0.6875 -0.203125q-0.3125 0 -0.5625 0.1875q-0.234375 0.1875 -0.34375 0.515625q-0.15625 0.5 -0.15625 1.09375l0 2.890627l-0.9375 0zm7.3454895 -1.7812519l0.96875 0.125q-0.234375 0.84375 -0.859375 1.3125019q-0.609375 0.46875 -1.578125 0.46875q-1.203125 0 -1.921875 -0.7500019q-0.703125 -0.75 -0.703125 -2.09375q0 -1.390625 0.71875 -2.15625q0.71875 -0.78125 1.859375 -0.78125q1.109375 0 1.8125 0.765625q0.703125 0.75 0.703125 2.125q0 0.078125 0 0.234375l-4.125 0q0.046875 0.921875 0.515625 1.40625q0.46875 0.484375 1.15625 0.484375q0.515625 0 0.875 -0.265625q0.359375 -0.28125 0.578125 -0.875zm-3.078125 -1.515625l3.09375 0q-0.0625 -0.6875 -0.359375 -1.046875q-0.453125 -0.53125 -1.15625 -0.53125q-0.640625 0 -1.09375 0.4375q-0.4375 0.421875 -0.484375 1.140625zm5.2233734 3.296877l0 -5.531252l0.84375 0l0 0.78125q0.25 -0.40625 0.6875 -0.65625q0.4375 -0.25 0.984375 -0.25q0.609375 0 1.0 0.265625q0.390625 0.25 0.5625 0.703125q0.65625 -0.96875 1.703125 -0.96875q0.828125 0 1.265625 0.46875q0.4375 0.453125 0.4375 1.390625l0 3.796877l-0.921875 0l0 -3.484377q0 -0.5625 -0.09375 -0.796875q-0.09375 -0.25 -0.34375 -0.40625q-0.234375 -0.15625 -0.546875 -0.15625q-0.59375 0 -0.984375 0.390625q-0.375 0.390625 -0.375 1.25l0 3.203127l-0.9375 0l0 -3.593752q0 -0.625 -0.234375 -0.9375q-0.21875 -0.3125 -0.75 -0.3125q-0.390625 0 -0.734375 0.21875q-0.328125 0.203125 -0.484375 0.609375q-0.140625 0.390625 -0.140625 1.15625l0 2.859377l-0.9375 0zm8.5329895 -2.765627q0 -1.53125 0.84375 -2.265625q0.71875 -0.625 1.734375 -0.625q1.140625 0 1.859375 0.75q0.734375 0.75 0.734375 2.0625q0 1.0625 -0.328125 1.6875q-0.3125 0.609375 -0.921875 0.9531269q-0.609375 0.328125 -1.34375 0.328125q-1.15625 0 -1.875 -0.7343769q-0.703125 -0.75 -0.703125 -2.15625zm0.953125 0q0 1.0625 0.46875 1.59375q0.46875 0.53125 1.15625 0.53125q0.703125 0 1.15625 -0.53125q0.46875 -0.53125 0.46875 -1.625q0 -1.015625 -0.46875 -1.546875q-0.453125 -0.53125 -1.15625 -0.53125q-0.6875 0 -1.15625 0.53125q-0.46875 0.515625 -0.46875 1.578125zm6.8483734 2.765627l-2.09375 -5.531252l0.984375 0l1.1875 3.3125q0.1875 0.53125 0.359375 1.109375q0.109375 -0.4375 0.34375 -1.046875l1.21875 -3.375l0.96875 0l-2.09375 5.531252l-0.875 0zm7.578125 -1.7812519l0.96875 0.125q-0.234375 0.84375 -0.859375 1.3125019q-0.609375 0.46875 -1.578125 0.46875q-1.203125 0 -1.921875 -0.7500019q-0.703125 -0.75 -0.703125 -2.09375q0 -1.390625 0.71875 -2.15625q0.71875 -0.78125 1.859375 -0.78125q1.109375 0 1.8125 0.765625q0.703125 0.75 0.703125 2.125q0 0.078125 0 0.234375l-4.125 0q0.046875 0.921875 0.515625 1.40625q0.46875 0.484375 1.15625 0.484375q0.515625 0 0.875 -0.265625q0.359375 -0.28125 0.578125 -0.875zm-3.078125 -1.515625l3.09375 0q-0.0625 -0.6875 -0.359375 -1.046875q-0.453125 -0.53125 -1.15625 -0.53125q-0.640625 0 -1.09375 0.4375q-0.4375 0.421875 -0.484375 1.140625zm7.0202484 5.546877q-0.78125 -0.984375 -1.328125 -2.296875q-0.53125 -1.3125019 -0.53125 -2.718752q0 -1.234375 0.40625 -2.375q0.46875 -1.3125 1.453125 -2.625l0.65625 0q-0.625 1.09375 -0.828125 1.546875q-0.3125 0.71875 -0.5 1.5q-0.21875 0.984375 -0.21875 1.96875q0 2.500002 1.546875 5.000002l-0.65625 0zm2.3611145 0l-0.671875 0q1.5624847 -2.5 1.5624847 -5.000002q0 -0.984375 -0.21875 -1.953125q-0.18748474 -0.78125 -0.49998474 -1.5q-0.203125 -0.46875 -0.84375 -1.5625l0.671875 0q0.98435974 1.3125 1.4531097 2.625q0.390625 1.140625 0.390625 2.375q0 1.40625 -0.53125 2.718752q-0.53125 1.3125 -1.3124847 2.296875z" fill-rule="nonzero"/><path fill="#b6d7a8" d="m14.005245 14.798254l0 0c0 -3.8182335 3.0952892 -6.9135237 6.9135246 -6.9135237l44.75563 0c1.83358 0 3.592064 0.7283869 4.8885956 2.0249243c1.2965393 1.2965374 2.0249252 3.0550194 2.0249252 4.8885994l0 27.653269c0 3.8182335 -3.0952911 6.913521 -6.913521 6.913521l-44.75563 0c-3.8182354 0 -6.9135246 -3.0952873 -6.9135246 -6.913521z" fill-rule="evenodd"/><path stroke="#000000" stroke-width="1.0" stroke-linejoin="round" stroke-linecap="butt" d="m14.005245 14.798254l0 0c0 -3.8182335 3.0952892 -6.9135237 6.9135246 -6.9135237l44.75563 0c1.83358 0 3.592064 0.7283869 4.8885956 2.0249243c1.2965393 1.2965374 2.0249252 3.0550194 2.0249252 4.8885994l0 27.653269c0 3.8182335 -3.0952911 6.913521 -6.913521 6.913521l-44.75563 0c-3.8182354 0 -6.9135246 -3.0952873 -6.9135246 -6.913521z" fill-rule="evenodd"/><path fill="#000000" d="m22.083921 32.364887l0 -7.625l1.0 0l0 7.625l-1.0 0zm2.6637726 0l0 -5.53125l0.84375 0l0 0.796875q0.609375 -0.921875 1.75 -0.921875q0.5 0 0.921875 0.1875q0.421875 0.171875 0.625 0.46875q0.21875 0.296875 0.296875 0.6875q0.046875 0.265625 0.046875 0.921875l0 3.390625l-0.9375 0l0 -3.359375q0 -0.578125 -0.109375 -0.859375q-0.109375 -0.28125 -0.390625 -0.453125q-0.265625 -0.171875 -0.640625 -0.171875q-0.59375 0 -1.03125 0.390625q-0.4375 0.375 -0.4375 1.4375l0 3.015625l-0.9375 0zm5.9264984 -6.546875l0 -1.078125l0.9375 0l0 1.078125l-0.9375 0zm0 6.546875l0 -5.53125l0.9375 0l0 5.53125l-0.9375 0zm4.4143505 -0.84375l0.125 0.828125q-0.390625 0.09375 -0.703125 0.09375q-0.5 0 -0.78125 -0.15625q-0.28125 -0.171875 -0.40625 -0.4375q-0.109375 -0.265625 -0.109375 -1.109375l0 -3.171875l-0.6875 0l0 -0.734375l0.6875 0l0 -1.359375l0.9375 -0.5625l0 1.921875l0.9375 0l0 0.734375l-0.9375 0l0 3.234375q0 0.390625 0.046875 0.515625q0.046875 0.109375 0.15625 0.1875q0.109375 0.0625 0.328125 0.0625q0.15625 0 0.40625 -0.046875zm0.9137726 -5.703125l0 -1.078125l0.9375 0l0 1.078125l-0.9375 0zm0 6.546875l0 -5.53125l0.9375 0l0 5.53125l-0.9375 0zm5.9768524 -0.6875q-0.53125 0.453125 -1.015625 0.640625q-0.46875 0.171875 -1.015625 0.171875q-0.921875 0 -1.40625 -0.4375q-0.484375 -0.453125 -0.484375 -1.140625q0 -0.40625 0.171875 -0.734375q0.1875 -0.34375 0.484375 -0.546875q0.3125 -0.203125 0.6875 -0.3125q0.265625 -0.0625 0.828125 -0.140625q1.125 -0.125 1.671875 -0.3125q0 -0.203125 0 -0.25q0 -0.578125 -0.265625 -0.8125q-0.359375 -0.3125 -1.0625 -0.3125q-0.65625 0 -0.984375 0.234375q-0.3125 0.234375 -0.453125 0.8125l-0.921875 -0.125q0.125 -0.578125 0.40625 -0.9375q0.296875 -0.375 0.828125 -0.5625q0.546875 -0.203125 1.25 -0.203125q0.71875 0 1.15625 0.171875q0.4375 0.171875 0.640625 0.421875q0.21875 0.25 0.296875 0.640625q0.046875 0.234375 0.046875 0.859375l0 1.25q0 1.296875 0.0625 1.65625q0.0625 0.34375 0.234375 0.65625l-0.96875 0q-0.15625 -0.296875 -0.1875 -0.6875zm-0.078125 -2.078125q-0.515625 0.203125 -1.53125 0.34375q-0.578125 0.078125 -0.828125 0.1875q-0.234375 0.109375 -0.359375 0.3125q-0.125 0.1875 -0.125 0.4375q0 0.375 0.28125 0.625q0.28125 0.25 0.828125 0.25q0.53125 0 0.953125 -0.234375q0.421875 -0.234375 0.625 -0.65625q0.15625 -0.3125 0.15625 -0.9375l0 -0.328125zm2.3796234 2.765625l0 -7.625l0.9375 0l0 7.625l-0.9375 0zm2.3831024 -6.546875l0 -1.078125l0.9375 0l0 1.078125l-0.9375 0zm0 6.546875l0 -5.53125l0.9375 0l0 5.53125l-0.9375 0zm1.8674774 0l0 -0.765625l3.515625 -4.03125q-0.59375 0.03125 -1.046875 0.03125l-2.25 0l0 -0.765625l4.515625 0l0 0.625l-3.0 3.5l-0.578125 0.640625q0.640625 -0.046875 1.1875 -0.046875l2.546875 0l0 0.8125l-4.890625 0zm9.609375 -1.78125l0.96875 0.125q-0.234375 0.84375 -0.859375 1.3125q-0.609375 0.46875 -1.578125 0.46875q-1.203125 0 -1.921875 -0.75q-0.703125 -0.75 -0.703125 -2.09375q0 -1.390625 0.71875 -2.15625q0.71875 -0.78125 1.859375 -0.78125q1.109375 0 1.8125 0.765625q0.703125 0.75 0.703125 2.125q0 0.078125 0 0.234375l-4.125 0q0.046875 0.921875 0.515625 1.40625q0.46875 0.484375 1.15625 0.484375q0.515625 0 0.875 -0.265625q0.359375 -0.28125 0.578125 -0.875zm-3.078125 -1.515625l3.09375 0q-0.0625 -0.6875 -0.359375 -1.046875q-0.453125 -0.53125 -1.15625 -0.53125q-0.640625 0 -1.09375 0.4375q-0.4375 0.421875 -0.484375 1.140625zm8.801498 3.296875l0 -0.703125q-0.515625 0.828125 -1.546875 0.828125q-0.65625 0 -1.21875 -0.359375q-0.546875 -0.375 -0.859375 -1.015625q-0.296875 -0.65625 -0.296875 -1.5q0 -0.828125 0.28125 -1.5q0.28125 -0.6875 0.828125 -1.046875q0.546875 -0.359375 1.234375 -0.359375q0.5 0 0.890625 0.21875q0.390625 0.203125 0.625 0.546875l0 -2.734375l0.9374962 0l0 7.625l-0.8749962 0zm-2.953125 -2.75q0 1.046875 0.4375 1.578125q0.453125 0.53125 1.0625 0.53125q0.609375 0 1.03125 -0.5q0.4375 -0.515625 0.4375 -1.53125q0 -1.140625 -0.4375 -1.671875q-0.4375 -0.53125 -1.078125 -0.53125q-0.609375 0 -1.03125 0.515625q-0.421875 0.5 -0.421875 1.609375z" fill-rule="nonzero"/><path fill="#b6d7a8" d="m139.20901 155.43721l0 0c0 -3.8182373 3.0952911 -6.9135284 6.9135284 -6.9135284l39.40129 0c1.8335876 0 3.5920715 0.72839355 4.8885956 2.0249329c1.2965393 1.2965393 2.0249329 3.055008 2.0249329 4.8885956l0 27.65326c0 3.8182373 -3.0952911 6.9135284 -6.9135284 6.9135284l-39.40129 0l0 0c-3.8182373 0 -6.9135284 -3.0952911 -6.9135284 -6.9135284z" fill-rule="evenodd"/><path stroke="#000000" stroke-width="1.0" stroke-linejoin="round" stroke-linecap="butt" d="m139.20901 155.43721l0 0c0 -3.8182373 3.0952911 -6.9135284 6.9135284 -6.9135284l39.40129 0c1.8335876 0 3.5920715 0.72839355 4.8885956 2.0249329c1.2965393 1.2965393 2.0249329 3.055008 2.0249329 4.8885956l0 27.65326c0 3.8182373 -3.0952911 6.9135284 -6.9135284 6.9135284l-39.40129 0l0 0c-3.8182373 0 -6.9135284 -3.0952911 -6.9135284 -6.9135284z" fill-rule="evenodd"/><path fill="#000000" d="m153.13338 170.33197l1.015625 0.25q-0.328125 1.25 -1.15625 1.90625q-0.8125 0.640625 -2.015625 0.640625q-1.234375 0 -2.0 -0.5q-0.765625 -0.5 -1.171875 -1.453125q-0.40625 -0.953125 -0.40625 -2.046875q0 -1.1875 0.453125 -2.078125q0.453125 -0.890625 1.296875 -1.34375q0.84375 -0.46875 1.84375 -0.46875q1.15625 0 1.9375 0.59375q0.78125 0.578125 1.078125 1.640625l-0.984375 0.234375q-0.265625 -0.84375 -0.78125 -1.21875q-0.5 -0.375 -1.265625 -0.375q-0.875 0 -1.46875 0.421875q-0.59375 0.421875 -0.828125 1.140625q-0.234375 0.703125 -0.234375 1.453125q0 0.96875 0.28125 1.703125q0.28125 0.71875 0.875 1.078125q0.59375 0.359375 1.296875 0.359375q0.84375 0 1.4375 -0.484375q0.59375 -0.5 0.796875 -1.453125zm2.1174774 2.671875l0 -5.53125l0.84375 0l0 0.84375q0.328125 -0.59375 0.59375 -0.78125q0.28125 -0.1875 0.609375 -0.1875q0.46875 0 0.953125 0.3125l-0.3125 0.859375q-0.34375 -0.203125 -0.6875 -0.203125q-0.3125 0 -0.5625 0.1875q-0.234375 0.1875 -0.34375 0.515625q-0.15625 0.5 -0.15625 1.09375l0 2.890625l-0.9375 0zm7.3454895 -1.78125l0.96875 0.125q-0.234375 0.84375 -0.859375 1.3125q-0.609375 0.46875 -1.578125 0.46875q-1.203125 0 -1.921875 -0.75q-0.703125 -0.75 -0.703125 -2.09375q0 -1.390625 0.71875 -2.15625q0.71875 -0.78125 1.859375 -0.78125q1.109375 0 1.8125 0.765625q0.703125 0.75 0.703125 2.125q0 0.078125 0 0.234375l-4.125 0q0.046875 0.921875 0.515625 1.40625q0.46875 0.484375 1.15625 0.484375q0.515625 0 0.875 -0.265625q0.359375 -0.28125 0.578125 -0.875zm-3.078125 -1.515625l3.09375 0q-0.0625 -0.6875 -0.359375 -1.046875q-0.453125 -0.53125 -1.15625 -0.53125q-0.640625 0 -1.09375 0.4375q-0.4375 0.421875 -0.484375 1.140625zm8.832748 2.609375q-0.53125 0.453125 -1.015625 0.640625q-0.46875 0.171875 -1.015625 0.171875q-0.921875 0 -1.40625 -0.4375q-0.484375 -0.453125 -0.484375 -1.140625q0 -0.40625 0.171875 -0.734375q0.1875 -0.34375 0.484375 -0.546875q0.3125 -0.203125 0.6875 -0.3125q0.265625 -0.0625 0.828125 -0.140625q1.125 -0.125 1.671875 -0.3125q0 -0.203125 0 -0.25q0 -0.578125 -0.265625 -0.8125q-0.359375 -0.3125 -1.0625 -0.3125q-0.65625 0 -0.984375 0.234375q-0.3125 0.234375 -0.453125 0.8125l-0.921875 -0.125q0.125 -0.578125 0.40625 -0.9375q0.296875 -0.375 0.828125 -0.5625q0.546875 -0.203125 1.25 -0.203125q0.71875 0 1.15625 0.171875q0.4375 0.171875 0.640625 0.421875q0.21875 0.25 0.296875 0.640625q0.046875 0.234375 0.046875 0.859375l0 1.25q0 1.296875 0.0625 1.65625q0.0625 0.34375 0.234375 0.65625l-0.96875 0q-0.15625 -0.296875 -0.1875 -0.6875zm-0.078125 -2.078125q-0.515625 0.203125 -1.53125 0.34375q-0.578125 0.078125 -0.828125 0.1875q-0.234375 0.109375 -0.359375 0.3125q-0.125 0.1875 -0.125 0.4375q0 0.375 0.28125 0.625q0.28125 0.25 0.828125 0.25q0.53125 0 0.953125 -0.234375q0.421875 -0.234375 0.625 -0.65625q0.15625 -0.3125 0.15625 -0.9375l0 -0.328125zm4.4421234 1.921875l0.125 0.828125q-0.390625 0.09375 -0.703125 0.09375q-0.5 0 -0.78125 -0.15625q-0.28125 -0.171875 -0.40625 -0.4375q-0.109375 -0.265625 -0.109375 -1.109375l0 -3.171875l-0.6875 0l0 -0.734375l0.6875 0l0 -1.359375l0.9375 -0.5625l0 1.921875l0.9375 0l0 0.734375l-0.9375 0l0 3.234375q0 0.390625 0.046875 0.515625q0.046875 0.109375 0.15625 0.1875q0.109375 0.0625 0.328125 0.0625q0.15625 0 0.40625 -0.046875zm4.6950226 -0.9375l0.96875 0.125q-0.234375 0.84375 -0.859375 1.3125q-0.609375 0.46875 -1.578125 0.46875q-1.203125 0 -1.921875 -0.75q-0.703125 -0.75 -0.703125 -2.09375q0 -1.390625 0.71875 -2.15625q0.71875 -0.78125 1.859375 -0.78125q1.109375 0 1.8125 0.765625q0.703125 0.75 0.703125 2.125q0 0.078125 0 0.234375l-4.125 0q0.046875 0.921875 0.515625 1.40625q0.46875 0.484375 1.15625 0.484375q0.515625 0 0.875 -0.265625q0.359375 -0.28125 0.578125 -0.875zm-3.078125 -1.515625l3.09375 0q-0.0625 -0.6875 -0.359375 -1.046875q-0.453125 -0.53125 -1.15625 -0.53125q-0.640625 0 -1.09375 0.4375q-0.4375 0.421875 -0.484375 1.140625zm8.801498 3.296875l0 -0.703125q-0.515625 0.828125 -1.546875 0.828125q-0.65625 0 -1.21875 -0.359375q-0.546875 -0.375 -0.859375 -1.015625q-0.296875 -0.65625 -0.296875 -1.5q0 -0.828125 0.28125 -1.5q0.28125 -0.6875 0.828125 -1.046875q0.546875 -0.359375 1.234375 -0.359375q0.5 0 0.890625 0.21875q0.390625 0.203125 0.625 0.546875l0 -2.734375l0.9375 0l0 7.625l-0.875 0zm-2.953125 -2.75q0 1.046875 0.4375 1.578125q0.453125 0.53125 1.0625 0.53125q0.609375 0 1.03125 -0.5q0.4375 -0.515625 0.4375 -1.53125q0 -1.140625 -0.4375 -1.671875q-0.4375 -0.53125 -1.078125 -0.53125q-0.609375 0 -1.03125 0.515625q-0.421875 0.5 -0.421875 1.609375z" fill-rule="nonzero"/><path fill="#b6d7a8" d="m139.20901 14.798254l0 0c0 -3.8182344 3.0952911 -6.913524 6.9135284 -6.913524l39.40129 0c1.8335876 0 3.5920715 0.7283864 4.8885956 2.0249238c1.2965393 1.2965374 2.0249329 3.0550194 2.0249329 4.8886003l0 27.653265c0 3.8182373 -3.0952911 6.9135246 -6.9135284 6.9135246l-39.40129 0l0 0c-3.8182373 0 -6.9135284 -3.0952873 -6.9135284 -6.9135246z" fill-rule="evenodd"/><path stroke="#000000" stroke-width="1.0" stroke-linejoin="round" stroke-linecap="butt" d="m139.20901 14.798254l0 0c0 -3.8182344 3.0952911 -6.913524 6.9135284 -6.913524l39.40129 0c1.8335876 0 3.5920715 0.7283864 4.8885956 2.0249238c1.2965393 1.2965374 2.0249329 3.0550194 2.0249329 4.8886003l0 27.653265c0 3.8182373 -3.0952911 6.9135246 -6.9135284 6.9135246l-39.40129 0l0 0c-3.8182373 0 -6.9135284 -3.0952873 -6.9135284 -6.9135246z" fill-rule="evenodd"/><path fill="#000000" d="m149.12904 29.911762l0.953125 -0.078125q0.0625 0.5625 0.3125 0.9375q0.25 0.359375 0.765625 0.59375q0.515625 0.21875 1.171875 0.21875q0.578125 0 1.015625 -0.171875q0.4375 -0.171875 0.65625 -0.46875q0.21875 -0.296875 0.21875 -0.65625q0 -0.359375 -0.21875 -0.625q-0.203125 -0.265625 -0.671875 -0.4375q-0.3125 -0.125 -1.359375 -0.375q-1.046875 -0.25 -1.46875 -0.484375q-0.546875 -0.28125 -0.828125 -0.703125q-0.265625 -0.421875 -0.265625 -0.953125q0 -0.578125 0.328125 -1.078125q0.328125 -0.5 0.953125 -0.765625q0.640625 -0.265625 1.40625 -0.265625q0.84375 0 1.484375 0.28125q0.65625 0.265625 1.0 0.796875q0.359375 0.53125 0.390625 1.203125l-0.96875 0.078125q-0.078125 -0.71875 -0.53125 -1.09375q-0.453125 -0.375 -1.328125 -0.375q-0.921875 0 -1.34375 0.34375q-0.40625 0.328125 -0.40625 0.8125q0 0.40625 0.296875 0.671875q0.28125 0.265625 1.515625 0.546875q1.234375 0.28125 1.6875 0.484375q0.671875 0.3125 0.984375 0.78125q0.3125 0.46875 0.3125 1.078125q0 0.609375 -0.34375 1.15625q-0.34375 0.53125 -1.0 0.828125q-0.65625 0.296875 -1.46875 0.296875q-1.046875 0 -1.75 -0.296875q-0.6875 -0.296875 -1.09375 -0.90625q-0.390625 -0.609375 -0.40625 -1.375zm9.3732605 1.609375l0.125 0.828125q-0.390625 0.09375 -0.703125 0.09375q-0.5 0 -0.78125 -0.15625q-0.28125 -0.171875 -0.40625 -0.4375q-0.109375 -0.265625 -0.109375 -1.109375l0 -3.171875l-0.6875 0l0 -0.734375l0.6875 0l0 -1.359375l0.9375 -0.5625l0 1.921875l0.9375 0l0 0.734375l-0.9375 0l0 3.234375q0 0.390625 0.046875 0.515625q0.046875 0.109375 0.15625 0.1875q0.109375 0.0625 0.328125 0.0625q0.15625 0 0.40625 -0.046875zm4.5231476 0.15625q-0.53125 0.453125 -1.015625 0.640625q-0.46875 0.171875 -1.015625 0.171875q-0.921875 0 -1.40625 -0.4375q-0.484375 -0.453125 -0.484375 -1.140625q0 -0.40625 0.171875 -0.734375q0.1875 -0.34375 0.484375 -0.546875q0.3125 -0.203125 0.6875 -0.3125q0.265625 -0.0625 0.828125 -0.140625q1.125 -0.125 1.671875 -0.3125q0 -0.203125 0 -0.25q0 -0.578125 -0.265625 -0.8125q-0.359375 -0.3125 -1.0625 -0.3125q-0.65625 0 -0.984375 0.234375q-0.3125 0.234375 -0.453125 0.8125l-0.921875 -0.125q0.125 -0.578125 0.40625 -0.9375q0.296875 -0.375 0.828125 -0.5625q0.546875 -0.203125 1.25 -0.203125q0.71875 0 1.15625 0.171875q0.4375 0.171875 0.640625 0.421875q0.21875 0.25 0.296875 0.640625q0.046875 0.234375 0.046875 0.859375l0 1.25q0 1.296875 0.0625 1.65625q0.0625 0.34375 0.234375 0.65625l-0.96875 0q-0.15625 -0.296875 -0.1875 -0.6875zm-0.078125 -2.078125q-0.515625 0.203125 -1.53125 0.34375q-0.578125 0.078125 -0.828125 0.1875q-0.234375 0.109375 -0.359375 0.3125q-0.125 0.1875 -0.125 0.4375q0 0.375 0.28125 0.625q0.28125 0.25 0.828125 0.25q0.53125 0 0.953125 -0.234375q0.421875 -0.234375 0.625 -0.65625q0.15625 -0.3125 0.15625 -0.9375l0 -0.328125zm2.3796234 2.765625l0 -5.53125l0.84375 0l0 0.84375q0.328125 -0.59375 0.59375 -0.78125q0.28125 -0.1875 0.609375 -0.1875q0.46875 0 0.953125 0.3125l-0.3125 0.859375q-0.34375 -0.203125 -0.6875 -0.203125q-0.3125 0 -0.5625 0.1875q-0.234375 0.1875 -0.34375 0.515625q-0.15625 0.5 -0.15625 1.09375l0 2.890625l-0.9375 0zm5.6111145 -0.84375l0.125 0.828125q-0.390625 0.09375 -0.703125 0.09375q-0.5 0 -0.78125 -0.15625q-0.28125 -0.171875 -0.40625 -0.4375q-0.109375 -0.265625 -0.109375 -1.109375l0 -3.171875l-0.6875 0l0 -0.734375l0.6875 0l0 -1.359375l0.9375 -0.5625l0 1.921875l0.9375 0l0 0.734375l-0.9375 0l0 3.234375q0 0.390625 0.046875 0.515625q0.046875 0.109375 0.15625 0.1875q0.109375 0.0625 0.328125 0.0625q0.15625 0 0.40625 -0.046875zm4.6950226 -0.9375l0.96875 0.125q-0.234375 0.84375 -0.859375 1.3125q-0.609375 0.46875 -1.578125 0.46875q-1.203125 0 -1.921875 -0.75q-0.703125 -0.75 -0.703125 -2.09375q0 -1.390625 0.71875 -2.15625q0.71875 -0.78125 1.859375 -0.78125q1.109375 0 1.8125 0.765625q0.703125 0.75 0.703125 2.125q0 0.078125 0 0.234375l-4.125 0q0.046875 0.921875 0.515625 1.40625q0.46875 0.484375 1.15625 0.484375q0.515625 0 0.875 -0.265625q0.359375 -0.28125 0.578125 -0.875zm-3.078125 -1.515625l3.09375 0q-0.0625 -0.6875 -0.359375 -1.046875q-0.453125 -0.53125 -1.15625 -0.53125q-0.640625 0 -1.09375 0.4375q-0.4375 0.421875 -0.484375 1.140625zm8.801498 3.296875l0 -0.703125q-0.515625 0.828125 -1.546875 0.828125q-0.65625 0 -1.21875 -0.359375q-0.546875 -0.375 -0.859375 -1.015625q-0.296875 -0.65625 -0.296875 -1.5q0 -0.828125 0.28125 -1.5q0.28125 -0.6875 0.828125 -1.046875q0.546875 -0.359375 1.234375 -0.359375q0.5 0 0.890625 0.21875q0.390625 0.203125 0.625 0.546875l0 -2.734375l0.9375 0l0 7.625l-0.875 0zm-2.953125 -2.75q0 1.046875 0.4375 1.578125q0.453125 0.53125 1.0625 0.53125q0.609375 0 1.03125 -0.5q0.4375 -0.515625 0.4375 -1.53125q0 -1.140625 -0.4375 -1.671875q-0.4375 -0.53125 -1.078125 -0.53125q-0.609375 0 -1.03125 0.515625q-0.421875 0.5 -0.421875 1.609375z" fill-rule="nonzero"/><path fill="#000000" fill-opacity="0.0" d="m72.58792 28.624887l16.125984 0" fill-rule="evenodd"/><path stroke="#000000" stroke-width="1.0" stroke-linejoin="round" stroke-linecap="butt" d="m72.58792 28.624887l10.125992 0" fill-rule="evenodd"/><path fill="#000000" stroke="#000000" stroke-width="1.0" stroke-linecap="butt" d="m82.71391 30.276619l4.5380936 -1.6517315l-4.5380936 -1.6517334z" fill-rule="evenodd"/><path fill="#000000" fill-opacity="0.0" d="m123.081856 28.624887l16.125984 0" fill-rule="evenodd"/><path stroke="#000000" stroke-width="1.0" stroke-linejoin="round" stroke-linecap="butt" d="m123.081856 28.624887l10.125984 0" fill-rule="evenodd"/><path fill="#000000" stroke="#000000" stroke-width="1.0" stroke-linecap="butt" d="m133.20784 30.276619l4.538101 -1.6517315l-4.538101 -1.6517334z" fill-rule="evenodd"/><path fill="#000000" fill-opacity="0.0" d="m165.82318 49.365044l0 26.803154" fill-rule="evenodd"/><path stroke="#000000" stroke-width="1.0" stroke-linejoin="round" stroke-linecap="butt" d="m165.82318 49.365044l0 20.803154" fill-rule="evenodd"/><path fill="#000000" stroke="#000000" stroke-width="1.0" stroke-linecap="butt" d="m164.17145 70.1682l1.6517334 4.5380936l1.6517334 -4.5380936z" fill-rule="evenodd"/><path fill="#000000" fill-opacity="0.0" d="m165.81927 121.82781l0 26.708656" fill-rule="evenodd"/><path stroke="#000000" stroke-width="1.0" stroke-linejoin="round" stroke-linecap="butt" d="m165.81927 121.827805l0 20.708664" fill-rule="evenodd"/><path fill="#000000" stroke="#000000" stroke-width="1.0" stroke-linecap="butt" d="m164.16754 142.53647l1.6517334 4.538101l1.6517334 -4.538101z" fill-rule="evenodd"/><path fill="#000000" fill-opacity="0.0" d="m139.20901 169.26384l-59.401573 0.03149414" fill-rule="evenodd"/><path stroke="#000000" stroke-width="1.0" stroke-linejoin="round" stroke-linecap="butt" stroke-dasharray="4.0,3.0" d="m139.20901 169.26384l-53.401573 0.028320312" fill-rule="evenodd"/><path fill="#000000" stroke="#000000" stroke-width="1.0" stroke-linecap="butt" d="m85.806564 167.64043l-4.537224 1.654129l4.538971 1.6493378z" fill-rule="evenodd"/><path fill="#000000" fill-opacity="0.0" d="m43.29657 146.44598l0 -97.07087" fill-rule="evenodd"/><path stroke="#000000" stroke-width="1.0" stroke-linejoin="round" stroke-linecap="butt" d="m43.296566 146.44598l0 -91.07087" fill-rule="evenodd"/><path fill="#000000" stroke="#000000" stroke-width="1.0" stroke-linecap="butt" d="m44.9483 55.375114l-1.6517334 -4.538101l-1.6517296 4.538101z" fill-rule="evenodd"/><path fill="#000000" fill-opacity="0.0" d="m192.43736 28.624887l18.267715 0" fill-rule="evenodd"/><path stroke="#000000" stroke-width="1.0" stroke-linejoin="round" stroke-linecap="butt" d="m192.43736 28.624887l12.267715 0" fill-rule="evenodd"/><path fill="#000000" stroke="#000000" stroke-width="1.0" stroke-linecap="butt" d="m204.70508 30.276619l4.538086 -1.6517315l-4.538086 -1.6517334z" fill-rule="evenodd"/><path fill="#b6d7a8" d="m280.20474 14.798254l0 0c0 -3.8182335 3.0952759 -6.9135237 6.913513 -6.9135237l46.51941 0c1.8335876 0 3.5920715 0.7283869 4.888611 2.0249243c1.2965393 1.2965374 2.0249329 3.0550194 2.0249329 4.8885994l0 27.653269c0 3.8182335 -3.0953064 6.913521 -6.9135437 6.913521l-46.51941 0c-3.8182373 0 -6.913513 -3.0952873 -6.913513 -6.913521z" fill-rule="evenodd"/><path stroke="#000000" stroke-width="1.0" stroke-linejoin="round" stroke-linecap="butt" d="m280.20474 14.798254l0 0c0 -3.8182335 3.0952759 -6.9135237 6.913513 -6.9135237l46.51941 0c1.8335876 0 3.5920715 0.7283869 4.888611 2.0249243c1.2965393 1.2965374 2.0249329 3.0550194 2.0249329 4.8885994l0 27.653269c0 3.8182335 -3.0953064 6.913521 -6.9135437 6.913521l-46.51941 0c-3.8182373 0 -6.913513 -3.0952873 -6.913513 -6.913521z" fill-rule="evenodd"/><path fill="#000000" d="m286.92255 32.364887l0 -7.625l2.625 0q0.890625 0 1.359375 0.109375q0.65625 0.140625 1.109375 0.546875q0.609375 0.5 0.90625 1.296875q0.296875 0.796875 0.296875 1.8125q0 0.875 -0.203125 1.546875q-0.203125 0.671875 -0.515625 1.109375q-0.3125 0.4375 -0.703125 0.6875q-0.375 0.25 -0.90625 0.390625q-0.53125 0.125 -1.21875 0.125l-2.75 0zm1.0 -0.90625l1.625 0q0.765625 0 1.1875 -0.140625q0.4375 -0.140625 0.6875 -0.390625q0.359375 -0.359375 0.5625 -0.953125q0.203125 -0.609375 0.203125 -1.484375q0 -1.1875 -0.40625 -1.828125q-0.390625 -0.65625 -0.953125 -0.875q-0.40625 -0.15625 -1.296875 -0.15625l-1.609375 0l0 5.828125zm10.351837 -0.875l0.96875 0.125q-0.234375 0.84375 -0.859375 1.3125q-0.609375 0.46875 -1.578125 0.46875q-1.203125 0 -1.921875 -0.75q-0.703125 -0.75 -0.703125 -2.09375q0 -1.390625 0.71875 -2.15625q0.71875 -0.78125 1.859375 -0.78125q1.109375 0 1.8125 0.765625q0.703125 0.75 0.703125 2.125q0 0.078125 0 0.234375l-4.125 0q0.046875 0.921875 0.515625 1.40625q0.46875 0.484375 1.15625 0.484375q0.515625 0 0.875 -0.265625q0.359375 -0.28125 0.578125 -0.875zm-3.078125 -1.515625l3.09375 0q-0.0625 -0.6875 -0.359375 -1.046875q-0.453125 -0.53125 -1.15625 -0.53125q-0.640625 0 -1.09375 0.4375q-0.4375 0.421875 -0.484375 1.140625zm4.8483887 1.640625l0.921875 -0.140625q0.078125 0.5625 0.4375 0.859375q0.359375 0.296875 1.0 0.296875q0.640625 0 0.953125 -0.265625q0.3125 -0.265625 0.3125 -0.625q0 -0.3125 -0.28125 -0.5q-0.1875 -0.125 -0.953125 -0.3125q-1.03125 -0.265625 -1.4375 -0.453125q-0.390625 -0.1875 -0.59375 -0.515625q-0.203125 -0.34375 -0.203125 -0.75q0 -0.359375 0.171875 -0.671875q0.171875 -0.328125 0.453125 -0.53125q0.21875 -0.15625 0.59375 -0.265625q0.390625 -0.125 0.8125 -0.125q0.65625 0 1.140625 0.1875q0.5 0.1875 0.734375 0.515625q0.234375 0.3125 0.3125 0.859375l-0.90625 0.125q-0.0625 -0.4375 -0.375 -0.671875q-0.296875 -0.234375 -0.828125 -0.234375q-0.65625 0 -0.9375 0.21875q-0.265625 0.203125 -0.265625 0.484375q0 0.1875 0.109375 0.328125q0.125 0.15625 0.359375 0.25q0.140625 0.0625 0.828125 0.25q1.0 0.265625 1.390625 0.4375q0.390625 0.15625 0.609375 0.484375q0.234375 0.3125 0.234375 0.796875q0 0.46875 -0.28125 0.890625q-0.265625 0.40625 -0.78125 0.640625q-0.515625 0.21875 -1.171875 0.21875q-1.078125 0 -1.640625 -0.4375q-0.5625 -0.453125 -0.71875 -1.34375zm7.75 0.8125l0.125 0.828125q-0.390625 0.09375 -0.703125 0.09375q-0.5 0 -0.78125 -0.15625q-0.28125 -0.171875 -0.40625 -0.4375q-0.109375 -0.265625 -0.109375 -1.109375l0 -3.171875l-0.6875 0l0 -0.734375l0.6875 0l0 -1.359375l0.9375 -0.5625l0 1.921875l0.9375 0l0 0.734375l-0.9375 0l0 3.234375q0 0.390625 0.046875 0.515625q0.046875 0.109375 0.15625 0.1875q0.109375 0.0625 0.328125 0.0625q0.15625 0 0.40625 -0.046875zm0.8981323 0.84375l0 -5.53125l0.84375 0l0 0.84375q0.328125 -0.59375 0.59375 -0.78125q0.28125 -0.1875 0.609375 -0.1875q0.46875 0 0.953125 0.3125l-0.3125 0.859375q-0.34375 -0.203125 -0.6875 -0.203125q-0.3125 0 -0.5625 0.1875q-0.234375 0.1875 -0.34375 0.515625q-0.15625 0.5 -0.15625 1.09375l0 2.890625l-0.9375 0zm3.2204895 -2.765625q0 -1.53125 0.84375 -2.265625q0.71875 -0.625 1.734375 -0.625q1.140625 0 1.859375 0.75q0.734375 0.75 0.734375 2.0625q0 1.0625 -0.328125 1.6875q-0.3125 0.609375 -0.921875 0.953125q-0.609375 0.328125 -1.34375 0.328125q-1.15625 0 -1.875 -0.734375q-0.703125 -0.75 -0.703125 -2.15625zm0.953125 0q0 1.0625 0.46875 1.59375q0.46875 0.53125 1.15625 0.53125q0.703125 0 1.15625 -0.53125q0.46875 -0.53125 0.46875 -1.625q0 -1.015625 -0.46875 -1.546875q-0.453125 -0.53125 -1.15625 -0.53125q-0.6875 0 -1.15625 0.53125q-0.46875 0.515625 -0.46875 1.578125zm5.2702637 4.890625l-0.09375 -0.875q0.296875 0.078125 0.53125 0.078125q0.3125 0 0.5 -0.109375q0.1875 -0.09375 0.3125 -0.28125q0.078125 -0.140625 0.28125 -0.703125q0.03125 -0.078125 0.078125 -0.21875l-2.09375 -5.546875l1.015625 0l1.140625 3.203125q0.234375 0.609375 0.40625 1.28125q0.15625 -0.640625 0.375 -1.265625l1.1875 -3.21875l0.9375 0l-2.109375 5.625q-0.328125 0.90625 -0.515625 1.25q-0.25 0.46875 -0.578125 0.6875q-0.3125 0.21875 -0.765625 0.21875q-0.265625 0 -0.609375 -0.125zm9.15625 -3.90625l0.96875 0.125q-0.234375 0.84375 -0.859375 1.3125q-0.609375 0.46875 -1.578125 0.46875q-1.203125 0 -1.921875 -0.75q-0.703125 -0.75 -0.703125 -2.09375q0 -1.390625 0.71875 -2.15625q0.71875 -0.78125 1.859375 -0.78125q1.109375 0 1.8125 0.765625q0.703125 0.75 0.703125 2.125q0 0.078125 0 0.234375l-4.125 0q0.046875 0.921875 0.515625 1.40625q0.46875 0.484375 1.15625 0.484375q0.515625 0 0.875 -0.265625q0.359375 -0.28125 0.578125 -0.875zm-3.078125 -1.515625l3.09375 0q-0.0625 -0.6875 -0.359375 -1.046875q-0.453125 -0.53125 -1.15625 -0.53125q-0.640625 0 -1.09375 0.4375q-0.4375 0.421875 -0.484375 1.140625zm8.801483 3.296875l0 -0.703125q-0.515625 0.828125 -1.546875 0.828125q-0.65625 0 -1.21875 -0.359375q-0.546875 -0.375 -0.859375 -1.015625q-0.296875 -0.65625 -0.296875 -1.5q0 -0.828125 0.28125 -1.5q0.28125 -0.6875 0.828125 -1.046875q0.546875 -0.359375 1.234375 -0.359375q0.5 0 0.890625 0.21875q0.390625 0.203125 0.625 0.546875l0 -2.734375l0.9375 0l0 7.625l-0.875 0zm-2.953125 -2.75q0 1.046875 0.4375 1.578125q0.453125 0.53125 1.0625 0.53125q0.609375 0 1.03125 -0.5q0.4375 -0.515625 0.4375 -1.53125q0 -1.140625 -0.4375 -1.671875q-0.4375 -0.53125 -1.078125 -0.53125q-0.609375 0 -1.03125 0.515625q-0.421875 0.5 -0.421875 1.609375z" fill-rule="nonzero"/><path fill="#000000" fill-opacity="0.0" d="m261.9489 28.624887l18.26773 0" fill-rule="evenodd"/><path stroke="#000000" stroke-width="1.0" stroke-linejoin="round" stroke-linecap="butt" d="m261.9489 28.624887l12.267731 0" fill-rule="evenodd"/><path fill="#000000" stroke="#000000" stroke-width="1.0" stroke-linecap="butt" d="m274.21664 30.276619l4.538086 -1.6517315l-4.538086 -1.6517334z" fill-rule="evenodd"/></g></svg>